<?xml version="1.0" encoding="UTF-8" standalone="no"?>
<!-- Creator: fig2dev Version 3.2 Patchlevel 5e -->

<!-- CreationDate: Sun Sep 13 21:47:03 2015 -->

<!-- Magnification: 1.050 -->

<svg
   xmlns:dc="http://purl.org/dc/elements/1.1/"
   xmlns:cc="http://creativecommons.org/ns#"
   xmlns:rdf="http://www.w3.org/1999/02/22-rdf-syntax-ns#"
   xmlns:svg="http://www.w3.org/2000/svg"
   xmlns="http://www.w3.org/2000/svg"
   xmlns:sodipodi="http://sodipodi.sourceforge.net/DTD/sodipodi-0.dtd"
   xmlns:inkscape="http://www.inkscape.org/namespaces/inkscape"
   width="4.5745077in"
   height="2.7788596in"
   viewBox="1259 541 5539.9696 3443.2595"
   id="svg4190"
   version="1.1"
   inkscape:version="0.91 r13725"
   sodipodi:docname="projecoes-indices.svg">
  <metadata
     id="metadata4242">
    <rdf:RDF>
      <cc:Work
         rdf:about="">
        <dc:format>image/svg+xml</dc:format>
        <dc:type
           rdf:resource="http://purl.org/dc/dcmitype/StillImage" />
        <dc:title></dc:title>
      </cc:Work>
    </rdf:RDF>
  </metadata>
  <defs
     id="defs4240">
    <marker
       inkscape:isstock="true"
       style="overflow:visible"
       id="marker5473"
       refX="0"
       refY="0"
       orient="auto"
       inkscape:stockid="Arrow1Lend">
      <path
         transform="matrix(-0.8,0,0,-0.8,-10,0)"
         style="fill:#ff0000;fill-opacity:1;fill-rule:evenodd;stroke:#ff0000;stroke-width:1pt;stroke-opacity:1"
         d="M 0,0 5,-5 -12.5,0 5,5 0,0 Z"
         id="path5475"
         inkscape:connector-curvature="0" />
    </marker>
    <marker
       inkscape:isstock="true"
       style="overflow:visible"
       id="marker5469"
       refX="0"
       refY="0"
       orient="auto"
       inkscape:stockid="Arrow1Lend">
      <path
         transform="matrix(-0.8,0,0,-0.8,-10,0)"
         style="fill:#ff0000;fill-opacity:1;fill-rule:evenodd;stroke:#ff0000;stroke-width:1pt;stroke-opacity:1"
         d="M 0,0 5,-5 -12.5,0 5,5 0,0 Z"
         id="path5471"
         inkscape:connector-curvature="0" />
    </marker>
    <marker
       inkscape:isstock="true"
       style="overflow:visible"
       id="marker5465"
       refX="0"
       refY="0"
       orient="auto"
       inkscape:stockid="Arrow1Lend">
      <path
         transform="matrix(-0.8,0,0,-0.8,-10,0)"
         style="fill:#ff0000;fill-opacity:1;fill-rule:evenodd;stroke:#ff0000;stroke-width:1pt;stroke-opacity:1"
         d="M 0,0 5,-5 -12.5,0 5,5 0,0 Z"
         id="path5467"
         inkscape:connector-curvature="0" />
    </marker>
    <marker
       inkscape:isstock="true"
       style="overflow:visible"
       id="marker5461"
       refX="0"
       refY="0"
       orient="auto"
       inkscape:stockid="Arrow1Lend">
      <path
         transform="matrix(-0.8,0,0,-0.8,-10,0)"
         style="fill:#ff0000;fill-opacity:1;fill-rule:evenodd;stroke:#ff0000;stroke-width:1pt;stroke-opacity:1"
         d="M 0,0 5,-5 -12.5,0 5,5 0,0 Z"
         id="path5463"
         inkscape:connector-curvature="0" />
    </marker>
    <marker
       inkscape:stockid="Arrow1Lend"
       orient="auto"
       refY="0"
       refX="0"
       id="Arrow1Lend"
       style="overflow:visible"
       inkscape:isstock="true"
       inkscape:collect="always">
      <path
         id="path5130"
         d="M 0,0 5,-5 -12.5,0 5,5 0,0 Z"
         style="fill:#ff0000;fill-opacity:1;fill-rule:evenodd;stroke:#ff0000;stroke-width:1pt;stroke-opacity:1"
         transform="matrix(-0.8,0,0,-0.8,-10,0)"
         inkscape:connector-curvature="0" />
    </marker>
  </defs>
  <sodipodi:namedview
     pagecolor="#ffffff"
     bordercolor="#666666"
     borderopacity="1"
     objecttolerance="10"
     gridtolerance="10"
     guidetolerance="10"
     inkscape:pageopacity="0"
     inkscape:pageshadow="2"
     inkscape:window-width="1871"
     inkscape:window-height="1056"
     id="namedview4238"
     showgrid="false"
     fit-margin-top="0"
     fit-margin-left="0"
     fit-margin-right="0"
     fit-margin-bottom="0"
     inkscape:zoom="1.3408151"
     inkscape:cx="398.12217"
     inkscape:cy="136.51799"
     inkscape:window-x="49"
     inkscape:window-y="24"
     inkscape:window-maximized="1"
     inkscape:current-layer="svg4190" />
  <polyline
     id="polyline4194"
     style="fill:none;stroke:#ff0000;stroke-width:8;stroke-linecap:butt;stroke-linejoin:miter;marker-end:url(#marker5473)"
     points="3401,1133 2001,1133 "
     transform="matrix(2.6822981,0,0,2.6822981,-2473.3941,-1015.3424)" />
  <polyline
     id="polyline4198"
     style="fill:none;stroke:#ff0000;stroke-width:8;stroke-linecap:butt;stroke-linejoin:miter;marker-end:url(#marker5469)"
     points="1984,1133 1428,1688 "
     transform="matrix(2.6822981,0,0,2.6822981,-2473.3941,-1015.3424)" />
  <polyline
     id="polyline4202"
     style="fill:none;stroke:#ff0000;stroke-width:8;stroke-linecap:butt;stroke-linejoin:miter;marker-end:url(#marker5465)"
     points="1417,1700 2344,1700 "
     transform="matrix(2.6822981,0,0,2.6822981,-2473.3941,-1015.3424)" />
  <polyline
     id="polyline4206"
     style="fill:none;stroke:#ff0000;stroke-width:8;stroke-linecap:butt;stroke-linejoin:miter;marker-end:url(#marker5461)"
     points="2362,1700 3054,1468 "
     transform="matrix(2.6822981,0,0,2.6822981,-2473.3941,-1015.3424)" />
  <polyline
     id="polyline4210"
     style="fill:none;stroke:#ff0000;stroke-width:8;stroke-linecap:butt;stroke-linejoin:miter;marker-end:url(#Arrow1Lend)"
     points="3070,1464 3388,1145 "
     transform="matrix(2.6822981,0,0,2.6822981,-2473.3941,-1015.3424)" />
  <text
     style="font-style:normal;font-variant:normal;font-weight:normal;font-stretch:normal;font-size:407.71020508px;line-height:125%;font-family:sans-serif;-inkscape-font-specification:'sans-serif, Normal';text-align:start;writing-mode:lr-tb;text-anchor:start;fill:#000000;stroke-width:0.025in"
     id="text4214"
     font-size="152"
     font-weight="normal"
     font-style="normal"
     y="3268.0845"
     x="5855.9307"
     xml:space="preserve"
     sodipodi:linespacing="125%">9</text>
  <text
     style="font-style:normal;font-variant:normal;font-weight:normal;font-stretch:normal;font-size:407.71020508px;line-height:125%;font-family:sans-serif;-inkscape-font-specification:'sans-serif, Normal';text-align:start;writing-mode:lr-tb;text-anchor:start;fill:#000000;stroke-width:0.025in"
     id="text4216"
     font-size="152"
     font-weight="normal"
     font-style="normal"
     y="2457.6235"
     x="2886.7151"
     xml:space="preserve"
     sodipodi:linespacing="125%">5</text>
  <text
     style="font-style:normal;font-variant:normal;font-weight:normal;font-stretch:normal;font-size:407.71020508px;line-height:125%;font-family:sans-serif;-inkscape-font-specification:'sans-serif, Normal';text-align:start;writing-mode:lr-tb;text-anchor:start;fill:#000000;stroke-width:0.025in"
     id="text4218"
     font-size="152"
     font-weight="normal"
     font-style="normal"
     y="2438.1484"
     x="6668.0562"
     xml:space="preserve"
     sodipodi:linespacing="125%">6</text>
  <text
     style="font-style:normal;font-variant:normal;font-weight:normal;font-stretch:normal;font-size:407.71020508px;line-height:125%;font-family:sans-serif;-inkscape-font-specification:'sans-serif, Normal';text-align:start;writing-mode:lr-tb;text-anchor:start;fill:#000000;stroke-width:0.025in"
     id="text4220"
     font-size="152"
     font-weight="normal"
     font-style="normal"
     y="3978.4866"
     x="1374.9923"
     xml:space="preserve"
     sodipodi:linespacing="125%">0</text>
  <text
     style="font-style:normal;font-variant:normal;font-weight:normal;font-stretch:normal;font-size:407.71020508px;line-height:125%;font-family:sans-serif;-inkscape-font-specification:'sans-serif, Normal';text-align:start;writing-mode:lr-tb;text-anchor:start;fill:#000000;stroke-width:0.025in"
     id="text4222"
     font-size="152"
     font-weight="normal"
     font-style="normal"
     y="3954.1426"
     x="3933.5874"
     xml:space="preserve"
     sodipodi:linespacing="125%">1</text>
  <g
     id="g5477"
     transform="matrix(2.6822981,0,0,2.6822981,-2701.4454,-910.12328)">
    <rect
       ry="66.915344"
       y="546.7229"
       x="1661.1494"
       height="217.95284"
       width="1641.3303"
       id="rect5455"
       style="fill:#b0e0e6;fill-opacity:1;fill-rule:nonzero;stroke:#5f9ea0;stroke-width:11.44579792;stroke-linecap:round;stroke-linejoin:round;stroke-miterlimit:4;stroke-dasharray:34.33739599, 34.33739599;stroke-dashoffset:0;stroke-opacity:0.86666667" />
    <text
       xml:space="preserve"
       x="1773.9615"
       y="694.44318"
       font-style="normal"
       font-weight="normal"
       font-size="152"
       id="text4224"
       style="font-style:normal;font-variant:normal;font-weight:normal;font-stretch:normal;font-size:152.00032043px;line-height:125%;font-family:sans-serif;-inkscape-font-specification:'sans-serif, Normal';text-align:start;writing-mode:lr-tb;text-anchor:start;fill:#000000;stroke-width:0.025in"
       sodipodi:linespacing="125%"><tspan
         style="font-style:normal;font-variant:normal;font-weight:normal;font-stretch:normal;font-size:152.00032043px;line-height:125%;font-family:sans-serif;-inkscape-font-specification:'sans-serif, Normal';text-align:start;writing-mode:lr-tb;text-anchor:start"
         id="tspan4244">frente do polígono</tspan></text>
  </g>
  <circle
     id="circle4228"
     style="fill:#ffffff;stroke:#000000;stroke-width:21.45838547"
     r="83.151245"
     cy="3544.5645"
     cx="1327.4225" />
  <circle
     id="circle4230"
     style="fill:#ffffff;stroke:#000000;stroke-width:21.45838547"
     r="83.151245"
     cy="2911.5422"
     cx="5761.2617" />
  <circle
     id="circle4232"
     style="fill:#ffffff;stroke:#000000;stroke-width:21.45838547"
     r="83.151245"
     cy="3544.5645"
     cx="3862.1946" />
  <circle
     id="circle4234"
     style="fill:#ffffff;stroke:#000000;stroke-width:21.45838547"
     r="83.151245"
     cy="2023.7014"
     cx="2848.2856" />
  <circle
     id="circle4236"
     style="fill:#ffffff;stroke:#000000;stroke-width:21.45838547"
     r="83.151245"
     cy="2023.7014"
     cx="6649.1021" />
  <g
     transform="matrix(-6.7219337,-2.7470585,-2.7527157,6.708118,8261.7104,43.160824)"
     inkscape:label="Layer 1"
     id="layer1"
     style="fill:#f5deb3;stroke:#8b4513">
    <path
       inkscape:export-xdpi="5.4699998"
       inkscape:export-filename="/home/l/matma/thumbUp.png"
       sodipodi:nodetypes="ccssssssssssssssssssssssss"
       inkscape:export-ydpi="5.4699998"
       d="m 277,456.36 c 8.3091,-4.3029 22.812,1.7318 33,-2.5 18.498,-7.6837 41.253,-35.566 49.618,-42.47 15.01,-12.39 28.86,-17.61 37.38,-34.03 4.3706,-8.4232 10.034,-28.923 19,-38 2.0015,-2.0261 6.6827,-3.9173 9.5,-3.5 7.0567,1.0451 11.159,5.8395 15.5,11.5 3.7296,4.8627 6.3704,10.883 6,17 -1.3169,21.75 -24.616,36.167 -31,57 -2.352,7.6754 -6.6939,17.488 -2,24 5.9372,8.2374 33.117,6.499 48,14 9.3469,4.7107 20.349,9.6233 25,19 3.703,7.4654 3.189,17.301 0,25 -2.5256,6.0973 -8.7813,7.7845 -11,14 -2.2524,6.31 1.8267,13.926 -1,20 -3.2376,6.9575 -13.617,9.7007 -18,16 -3.1397,4.5127 -1.4879,8.7706 -5,13 -5.6221,6.7703 -13.756,5.7987 -20,12 -3.9149,3.8882 -6.743,10.49 -11,14 -6.3621,5.2463 -15.755,6.1374 -24,6 -9.7055,-0.16171 -15.327,-4.1873 -25,-5 -9.0236,-0.75814 -21.351,2.6812 -30,0 -21.446,-6.6479 -31.758,-30.285 -51,-44 -7.4534,-5.3126 -20.253,1.1855 -27,-5 -11.981,-10.985 -12.22,-29.897 -10,-46 2.2874,-16.593 8.1263,-34.298 23,-42 z"
       style="color:#000000;fill:#f5deb3;stroke:#8b4513;stroke-width:10;stroke-linecap:round;stroke-linejoin:round"
       id="path2890"
       inkscape:connector-curvature="0" />
    <path
       inkscape:export-xdpi="5.4699998"
       inkscape:export-filename="/home/l/matma/thumbUp.png"
       sodipodi:nodetypes="cssssss"
       inkscape:export-ydpi="5.4699998"
       d="m 472,517.86 c 0,0 -28.514,6.7667 -40.5,2.5 -15.511,-5.5213 -23.735,-12.779 -39.5,-20.5 -3.1469,-1.5411 -5.46,-7.5955 -3.5,-10.5 5.1309,-7.6035 16.863,-11.694 26,-12.5 11.839,-1.0443 24.625,7.5217 33.5,10 2.7711,0.7738 9.5,-1.5 9.5,-1.5"
       style="color:#000000;fill:#f5deb3;stroke:#8b4513;stroke-width:10;stroke-linecap:round;stroke-linejoin:round"
       id="path3664"
       inkscape:connector-curvature="0" />
    <path
       inkscape:export-xdpi="5.4699998"
       inkscape:export-filename="/home/l/matma/thumbUp.png"
       sodipodi:nodetypes="cssss"
       inkscape:export-ydpi="5.4699998"
       d="m 454,551.36 c 0,-0.34632 -23.766,1.126 -38,-3.5 -12.962,-4.2129 -20.471,-11.096 -43.5,-21 -9.724,-4.182 -3.4543,-8.1341 -2,-11.5 3.0865,-7.1435 18,-16.5 18,-16.5"
       style="color:#000000;fill:#f5deb3;stroke:#8b4513;stroke-width:10;stroke-linecap:round;stroke-linejoin:round"
       id="path3701"
       inkscape:connector-curvature="0" />
    <path
       inkscape:export-xdpi="5.4699998"
       inkscape:export-filename="/home/l/matma/thumbUp.png"
       sodipodi:nodetypes="cssss"
       inkscape:export-ydpi="5.4699998"
       d="m 431,577.36 c 0,0 -19.985,-0.47071 -28.5,-5 -12.907,-6.8652 -28.261,-12.859 -41,-19.5 -3.5959,-1.8745 -3.1601,-8.1143 -2,-12 1.6871,-5.6508 12,-13 12,-13"
       style="color:#000000;fill:#f5deb3;stroke:#8b4513;stroke-width:10;stroke-linecap:round;stroke-linejoin:round"
       id="path3703"
       inkscape:connector-curvature="0" />
    <path
       inkscape:export-xdpi="5.4699998"
       inkscape:export-filename="/home/l/matma/thumbUp.png"
       sodipodi:nodetypes="csss"
       inkscape:export-ydpi="5.4699998"
       d="m 396.36,597.86 c 0,0 -34.168,-11.004 -43.864,-20 -2.5918,-2.4047 -0.61803,-9.1459 0.5,-12.5 1.7888,-5.3666 10,-10 10,-10"
       style="color:#000000;fill:#f5deb3;stroke:#8b4513;stroke-width:10;stroke-linecap:round;stroke-linejoin:round"
       id="path3705"
       inkscape:connector-curvature="0" />
  </g>
</svg>
