<?xml version="1.0" encoding="UTF-8" standalone="no"?>
<!-- Created with Inkscape (http://www.inkscape.org/) -->

<svg
   xmlns:dc="http://purl.org/dc/elements/1.1/"
   xmlns:cc="http://creativecommons.org/ns#"
   xmlns:rdf="http://www.w3.org/1999/02/22-rdf-syntax-ns#"
   xmlns:svg="http://www.w3.org/2000/svg"
   xmlns="http://www.w3.org/2000/svg"
   xmlns:sodipodi="http://sodipodi.sourceforge.net/DTD/sodipodi-0.dtd"
   xmlns:inkscape="http://www.inkscape.org/namespaces/inkscape"
   width="150"
   height="170"
   id="svg2"
   version="1.1"
   inkscape:version="0.91 r13725"
   sodipodi:docname="logo.svg">
  <defs
     id="defs4" />
  <sodipodi:namedview
     id="base"
     pagecolor="#ffffff"
     bordercolor="#666666"
     borderopacity="1.0"
     inkscape:pageopacity="0.0"
     inkscape:pageshadow="2"
     inkscape:zoom="2.8"
     inkscape:cx="-10.981979"
     inkscape:cy="87.072758"
     inkscape:document-units="px"
     inkscape:current-layer="g4635"
     preserveAspectRatio="xMinYMin meet"
     viewBox="0 0 150 170"
     showgrid="false"
     fit-margin-top="0"
     fit-margin-left="0"
     fit-margin-right="0"
     fit-margin-bottom="0"
     inkscape:window-width="1871"
     inkscape:window-height="1056"
     inkscape:window-x="49"
     inkscape:window-y="24"
     inkscape:window-maximized="1" />
  <metadata
     id="metadata7">
    <rdf:RDF>
      <cc:Work
         rdf:about="">
        <dc:format>image/svg+xml</dc:format>
        <dc:type
           rdf:resource="http://purl.org/dc/dcmitype/StillImage" />
        <dc:title />
      </cc:Work>
    </rdf:RDF>
  </metadata>
  <g
     inkscape:label="Camada 1"
     inkscape:groupmode="layer"
     id="layer1"
     transform="translate(-190.12816,-560.38891)">
    <g
       id="g4635"
       transform="matrix(0.15359925,-0.2673826,-0.2673826,-0.15359925,340.68484,814.11812)"
       style="fill:#ffffff;fill-opacity:1;stroke:#ffffff;stroke-opacity:1">
      <path
         id="path3026"
         style="fill:#000000;fill-opacity:1;fill-rule:nonzero;stroke:#000000;stroke-width:1.49441254;stroke-linecap:butt;stroke-linejoin:miter;stroke-miterlimit:10;stroke-opacity:1;stroke-dasharray:none"
         d="m 380.26266,455.64615 c 0,-39.13928 -31.72777,-70.86704 -70.86704,-70.86704 -39.13928,0 -70.86704,31.72776 -70.86704,70.86704 0,39.13927 31.72776,70.86704 70.86704,70.86704 39.13927,0 70.86704,-31.72777 70.86704,-70.86704 z"
         inkscape:connector-curvature="0" />
      <path
         inkscape:connector-curvature="0"
         d="m 526.42596,455.64615 c 0,-22.01584 -17.84685,-39.86269 -39.86272,-39.86269 -22.01583,0 -39.86271,17.84685 -39.86271,39.86269 0,22.01584 17.84688,39.86269 39.86271,39.86269 22.01587,0 39.86272,-17.84685 39.86272,-39.86269 z"
         style="fill:#000000;fill-opacity:1;fill-rule:nonzero;stroke:#000000;stroke-width:1.49441254;stroke-linecap:butt;stroke-linejoin:miter;stroke-miterlimit:10;stroke-opacity:1;stroke-dasharray:none"
         id="path3048" />
      <path
         id="path3066"
         style="fill:#000000;fill-opacity:1;fill-rule:nonzero;stroke:#000000;stroke-opacity:1"
         d="m 375.98917,431.40782 c 5.69786,15.65459 5.69786,32.82207 0,48.47665 6.05957,-16.64837 21.99022,-20.7503 39.707,-20.7503 l 0,-6.97605 c -17.71678,0 -33.64743,-4.10192 -39.707,-20.7503 z m 39.707,27.72635 11.07301,0 0,-6.97608 -11.07301,0 0,6.97608 z m 33.4082,-17.12207 c -3.20504,8.80569 -3.20504,18.46241 0,27.2681 -3.40851,-9.3647 -12.3695,-10.14603 -22.33517,-10.14603 l 0,-6.97605 c 9.96567,0 18.92666,-0.78132 22.33517,-10.14602 z"
         inkscape:connector-curvature="0" />
      <g
         transform="matrix(1.25,0,0,-1.25,309.39562,455.64615)"
         id="g3072"
         style="fill:#000000;fill-opacity:1;stroke:#000000;stroke-opacity:1">
        <path
           id="path3074"
           style="fill:#000000;fill-opacity:1;fill-rule:nonzero;stroke:#000000;stroke-width:1.19553006;stroke-linecap:butt;stroke-linejoin:miter;stroke-miterlimit:10;stroke-opacity:1;stroke-dasharray:none"
           d="m 166.53755,82.2056 c 0,13.69874 -11.1047,24.80346 -24.80345,24.80346 -13.69875,0 -24.80345,-11.10472 -24.80345,-24.80346 0,-13.69875 11.1047,-24.80345 24.80345,-24.80345 13.69875,0 24.80345,11.1047 24.80345,24.80345 z"
           inkscape:connector-curvature="0" />
      </g>
      <path
         id="path3092"
         style="fill:#000000;fill-opacity:1;fill-rule:nonzero;stroke:#000000;stroke-opacity:1"
         d="m 472.92917,418.18729 c 8.8057,-3.20503 18.46245,-3.20503 27.26815,0 -9.3647,-3.40852 -10.92116,-12.36952 -10.92116,-22.33519 l -5.42582,0 c 0,9.96567 -1.55644,18.92667 -10.92117,22.33519 z m 10.92116,-18.79165 0,-3.54354 5.42583,0 0,3.54354 -5.42583,0 z m -7.89135,-17.37183 c 6.84887,2.4928 14.35966,2.4928 21.20853,0 -7.28363,2.65106 -7.89135,9.62071 -7.89135,17.37183 l -5.42582,0 c 0,-7.75112 -0.60772,-14.72077 -7.89136,-17.37183 z"
         inkscape:connector-curvature="0" />
      <g
         transform="matrix(1.25,0,0,-1.25,309.39562,455.64615)"
         id="g3098"
         style="fill:#000000;fill-opacity:1;stroke:#000000;stroke-opacity:1">
        <path
           id="path3100"
           style="fill:#000000;fill-opacity:1;fill-rule:nonzero;stroke:#000000;stroke-width:1.19553006;stroke-linecap:butt;stroke-linejoin:miter;stroke-miterlimit:10;stroke-opacity:1;stroke-dasharray:none"
           d="m 237.7299,41.1028 c 0,13.69874 -11.10472,24.80345 -24.80346,24.80345 -13.69875,0 -24.80345,-11.10471 -24.80345,-24.80345 0,-13.69875 11.1047,-24.80345 24.80345,-24.80345 13.69874,0 24.80346,11.1047 24.80346,24.80345 z"
           inkscape:connector-curvature="0" />
      </g>
      <path
         id="path3120"
         style="fill:#000000;fill-opacity:1;fill-rule:nonzero;stroke:#000000;stroke-opacity:1"
         d="m 512.29916,425.04374 c 7.17672,6.02532 12.00274,14.38953 13.6274,23.61828 -1.7278,-9.81466 5.25592,-15.64111 13.88771,-20.6215 l -2.71159,-4.69953 c -8.63178,4.98038 -17.17118,8.11057 -24.80352,1.70275 z m 21.53663,0.18218 3.26689,-1.88493 2.71159,4.69955 -3.2669,1.88493 -2.71158,-4.69955 z m 11.10283,-15.51676 c 1.26363,7.17793 5.01719,13.68341 10.59909,18.36978 -5.93627,-4.98385 -12.27675,-2.0271 -18.99035,1.84653 l -2.71159,-4.69953 c 6.71362,-3.87363 12.4467,-7.88317 11.10285,-15.51678 z"
         inkscape:connector-curvature="0" />
      <g
         transform="matrix(1.25,0,0,-1.25,309.39562,455.64615)"
         id="g3126"
         style="fill:#000000;fill-opacity:1;stroke:#000000;stroke-opacity:1">
        <path
           id="path3128"
           style="fill:#000000;fill-opacity:1;fill-rule:nonzero;stroke:#000000;stroke-width:1.19553006;stroke-linecap:butt;stroke-linejoin:miter;stroke-miterlimit:10;stroke-opacity:1;stroke-dasharray:none"
           d="m 238.59128,-41.1028 c 0,14.17449 -11.49036,25.66483 -25.66484,25.66483 -14.17447,0 -25.66483,-11.49034 -25.66483,-25.66483 0,-14.17447 11.49036,-25.66482 25.66483,-25.66482 14.17448,0 25.66484,11.49035 25.66484,25.66482 z"
           inkscape:connector-curvature="0" />
      </g>
      <path
         id="path3150"
         style="fill:#000000;fill-opacity:1;fill-rule:nonzero;stroke:#000000;stroke-opacity:1"
         d="m 525.92656,462.62905 c -1.62467,9.22876 -6.45068,17.59296 -13.6274,23.6183 7.63234,-6.40784 16.12466,-3.19604 24.75645,1.78436 l 2.80571,-4.86277 c -8.63176,-4.98039 -15.66256,-10.72523 -13.93476,-20.53989 z m 9.2665,17.84635 4.66827,2.69352 -2.80572,4.86277 -4.66828,-2.69352 2.80573,-4.86277 z m 19.64983,1.91067 c -5.77572,4.84909 -9.65967,11.58053 -10.96716,19.00772 1.3905,-7.89872 -4.54166,-12.04744 -11.48841,-16.05562 l 2.8057,-4.86277 c 6.94676,4.00816 13.50748,7.06765 19.64987,1.91067 z"
         inkscape:connector-curvature="0" />
      <g
         transform="matrix(1.25,0,0,-1.25,309.39562,455.64615)"
         id="g3156"
         style="fill:#000000;fill-opacity:1;stroke:#000000;stroke-opacity:1">
        <path
           id="path3158"
           style="fill:#000000;fill-opacity:1;fill-rule:nonzero;stroke:#000000;stroke-width:1.19553006;stroke-linecap:butt;stroke-linejoin:miter;stroke-miterlimit:10;stroke-opacity:1;stroke-dasharray:none"
           d="m 166.53755,-82.2056 c 0,13.69875 -11.1047,24.80345 -24.80345,24.80345 -13.69875,0 -24.80345,-11.1047 -24.80345,-24.80345 0,-13.69874 11.1047,-24.80346 24.80345,-24.80346 13.69875,0 24.80345,11.10472 24.80345,24.80346 z"
           inkscape:connector-curvature="0" />
      </g>
      <path
         id="path3178"
         style="fill:#000000;fill-opacity:1;fill-rule:nonzero;stroke:#000000;stroke-opacity:1"
         d="m 500.19732,493.10501 c -8.8057,3.20503 -18.46245,3.20503 -27.26815,0 9.36473,3.40851 10.92117,12.36951 10.92117,22.33519 l 5.42582,0 c 0,-9.96568 1.55646,-18.92668 10.92116,-22.33519 z m -10.92114,18.79165 0,3.54354 -5.42584,0 0,-3.54354 5.42584,0 z m 7.89133,17.37183 c -6.84887,-2.4928 -14.35966,-2.4928 -21.20853,0 7.28364,-2.65106 7.89136,-9.62071 7.89136,-17.37183 l 5.42582,0 c 0,7.75112 0.60772,14.72077 7.89135,17.37183 z"
         inkscape:connector-curvature="0" />
      <path
         inkscape:connector-curvature="0"
         d="m 437.84212,609.07825 c 0,-22.01585 -17.84685,-39.86271 -39.86271,-39.86271 -22.01584,0 -39.86269,17.84686 -39.86269,39.86271 0,22.01584 17.84685,39.86269 39.86269,39.86269 22.01586,0 39.86271,-17.84685 39.86271,-39.86269 z"
         style="fill:#000000;fill-opacity:1;fill-rule:nonzero;stroke:#000000;stroke-width:1.49441254;stroke-linecap:butt;stroke-linejoin:miter;stroke-miterlimit:10;stroke-opacity:1;stroke-dasharray:none"
         id="path3186" />
      <path
         id="path3204"
         style="fill:#000000;fill-opacity:1;fill-rule:nonzero;stroke:#000000;stroke-opacity:1"
         d="m 363.82103,501.42719 c -10.73055,12.74252 -25.61271,21.29982 -42.02353,24.16361 17.45259,-3.0456 28.94927,8.71976 37.78033,24.07812 l 6.04741,-3.47727 c -8.83106,-15.35835 -13.21593,-31.213 -1.80421,-44.76446 z m 7.12593,54.01951 -5.32169,-9.25506 -6.04744,3.47728 5.32169,9.25504 6.04744,-3.47726 z m 19.92855,14.3046 c -9.23105,1.61089 -17.60233,6.42436 -23.63823,13.59201 6.41909,-7.6227 2.6297,-15.78027 -2.33776,-24.41935 l 6.04743,-3.47725 c 4.96747,8.63906 10.11146,16.01773 19.92856,14.30459 z"
         inkscape:connector-curvature="0" />
      <g
         transform="matrix(1.25,0,0,-1.25,309.39562,455.64615)"
         id="g3210"
         style="fill:#000000;fill-opacity:1;stroke:#000000;stroke-opacity:1">
        <path
           id="path3212"
           style="fill:#000000;fill-opacity:1;fill-rule:nonzero;stroke:#000000;stroke-width:1.19553006;stroke-linecap:butt;stroke-linejoin:miter;stroke-miterlimit:10;stroke-opacity:1;stroke-dasharray:none"
           d="m 166.86284,-163.84848 c 0,13.69875 -11.10472,24.80345 -24.80347,24.80345 -13.69874,0 -24.80345,-11.1047 -24.80345,-24.80345 0,-13.69875 11.10471,-24.80345 24.80345,-24.80345 13.69875,0 24.80347,11.1047 24.80347,24.80345 z"
           inkscape:connector-curvature="0" />
      </g>
      <path
         id="path3230"
         style="fill:#000000;fill-opacity:1;fill-rule:nonzero;stroke:#000000;stroke-opacity:1"
         d="m 437.34272,616.06237 c -1.62466,9.22877 -6.45068,17.59297 -13.6274,23.6183 7.63234,-6.40783 16.17175,-3.27765 24.80352,1.70274 l 2.71159,-4.69954 c -8.63178,-4.98038 -15.6155,-10.80683 -13.88771,-20.6215 z m 10.62082,18.73653 3.26689,1.88494 -2.71158,4.69956 -3.26689,-1.88494 2.71158,-4.69956 z m 18.99033,1.84656 c -5.58189,4.68636 -9.33546,11.19186 -10.59907,18.36978 1.34386,-7.63362 -4.38924,-11.64314 -11.10285,-15.51678 l 2.71157,-4.69954 c 6.71363,3.87364 13.05409,6.83039 18.99035,1.84654 z"
         inkscape:connector-curvature="0" />
      <g
         transform="matrix(1.25,0,0,-1.25,309.39562,455.64615)"
         id="g3236"
         style="fill:#000000;fill-opacity:1;stroke:#000000;stroke-opacity:1">
        <path
           id="path3238"
           style="fill:#000000;fill-opacity:1;fill-rule:nonzero;stroke:#000000;stroke-width:1.19553006;stroke-linecap:butt;stroke-linejoin:miter;stroke-miterlimit:10;stroke-opacity:1;stroke-dasharray:none"
           d="m 95.6705,-204.9513 c 0,13.69877 -11.10472,24.80347 -24.80347,24.80347 -13.69874,0 -24.80345,-11.1047 -24.80345,-24.80347 0,-13.69874 11.10471,-24.80345 24.80345,-24.80345 13.69875,0 24.80347,11.10471 24.80347,24.80345 z"
           inkscape:connector-curvature="0" />
      </g>
      <path
         id="path3256"
         style="fill:#000000;fill-opacity:1;fill-rule:nonzero;stroke:#000000;stroke-opacity:1"
         d="m 411.61348,646.53711 c -8.80569,3.20504 -18.46245,3.20504 -27.26811,0 9.36469,3.40853 10.92115,12.36951 10.92115,22.33519 l 5.42581,0 c 0,-9.96568 1.55645,-18.92666 10.92115,-22.33519 z m -10.92114,18.79166 0,3.54353 -5.42582,0 0,-3.54353 5.42582,0 z m 7.89136,17.37182 c -6.84887,-2.49282 -14.35968,-2.49282 -21.20856,0 7.28365,-2.65106 7.89138,-9.62071 7.89138,-17.37182 l 5.42581,0 c 0,7.75111 0.60771,14.72076 7.89137,17.37182 z"
         inkscape:connector-curvature="0" />
      <path
         inkscape:connector-curvature="0"
         d="m 260.67452,609.07825 c 0,-22.01585 -17.84685,-39.86271 -39.86269,-39.86271 -22.01586,0 -39.86271,17.84686 -39.86271,39.86271 0,22.01584 17.84685,39.86269 39.86271,39.86269 22.01584,0 39.86269,-17.84685 39.86269,-39.86269 z"
         style="fill:#000000;fill-opacity:1;fill-rule:nonzero;stroke:#000000;stroke-width:1.49441254;stroke-linecap:butt;stroke-linejoin:miter;stroke-miterlimit:10;stroke-opacity:1;stroke-dasharray:none"
         id="path3264" />
      <path
         id="path3282"
         style="fill:#000000;fill-opacity:1;fill-rule:nonzero;stroke:#000000;stroke-opacity:1"
         d="m 296.99374,525.5908 c -16.41082,-2.86379 -31.29298,-11.42109 -42.02353,-24.16361 11.41172,13.55146 7.02685,29.40611 -1.80422,44.76446 l 6.04742,3.47727 c 8.83106,-15.35836 20.32774,-27.12372 37.78033,-24.07812 z m -43.10199,33.33319 5.32168,-9.25505 -6.04744,-3.47729 -5.32169,9.25506 6.04745,3.47728 z m -2.33779,24.41932 c -6.0359,-7.16765 -14.40718,-11.98112 -23.63823,-13.59201 9.8171,1.71314 14.96109,-5.66553 19.92857,-14.30459 l 6.04742,3.47725 c -4.96746,8.63908 -8.75685,16.79665 -2.33776,24.41935 z"
         inkscape:connector-curvature="0" />
      <path
         inkscape:connector-curvature="0"
         d="m 172.09071,455.64615 c 0,-22.01584 -17.84688,-39.86269 -39.86272,-39.86269 -22.01586,0 -39.862708,17.84685 -39.862708,39.86269 0,22.01584 17.846848,39.86269 39.862708,39.86269 22.01584,0 39.86272,-17.84685 39.86272,-39.86269 z"
         style="fill:#000000;fill-opacity:1;fill-rule:nonzero;stroke:#000000;stroke-width:1.49441254;stroke-linecap:butt;stroke-linejoin:miter;stroke-miterlimit:10;stroke-opacity:1;stroke-dasharray:none"
         id="path3290" />
      <path
         id="path3308"
         style="fill:#000000;fill-opacity:1;fill-rule:nonzero;stroke:#000000;stroke-opacity:1"
         d="m 242.80207,479.88447 c -5.69786,-15.65458 -5.69786,-32.82206 0,-48.47665 -6.05957,16.64838 -21.99023,20.7503 -39.707,20.7503 l 0,6.97605 c 17.71677,0 33.64743,4.10193 39.707,20.7503 z m -50.78002,-20.75027 11.07302,0 0,-6.97608 -11.07302,0 0,6.97608 z m -22.33518,10.146 c 3.20504,-8.80569 3.20504,-18.46241 0,-27.2681 3.40851,9.3647 12.3695,10.14602 22.33518,10.14602 l 0,6.97605 c -9.96568,0 -18.92667,0.78133 -22.33518,10.14603 z"
         inkscape:connector-curvature="0" />
    </g>
  </g>
</svg>
